<?xml version="1.0" standalone="no"?>
<!DOCTYPE svg PUBLIC "-//W3C//DTD SVG 20010904//EN"
 "http://www.w3.org/TR/2001/REC-SVG-20010904/DTD/svg10.dtd">
<svg version="1.0" xmlns="http://www.w3.org/2000/svg"
 width="76.000000pt" height="76.000000pt" viewBox="0 0 76.000000 76.000000"
 preserveAspectRatio="xMidYMid meet">

<g transform="translate(0.000000,76.000000) scale(0.100000,-0.100000)"
fill="#000000" stroke="none">
<path d="M346 661 c-12 -13 -19 -44 -23 -105 l-6 -86 -53 31 -54 30 0 -70 0
-70 53 -30 54 -31 6 -126 c4 -70 12 -133 18 -140 15 -18 63 -18 78 0 10 11 21
151 21 254 0 6 25 25 55 42 l55 31 0 70 0 69 -54 -30 -53 -30 -6 85 c-3 63
-10 91 -22 106 -23 24 -47 24 -69 0z"/>
</g>
</svg>
